<?xml version="1.0" encoding="UTF-8"?>
<!-- Generator: visioncortex VTracer 0.6.12 -->
<svg version="1.1" xmlns="http://www.w3.org/2000/svg" width="1024" height="1024" viewBox="0 0 1024 1024">
<path d="M0 0 C0.83453705 -0.00067474 1.6690741 -0.00134949 2.52890015 -0.00204468 C65.87643415 0.07876634 127.46825298 20.35749183 176.9375 60.25 C177.92234375 61.02988281 178.9071875 61.80976563 179.921875 62.61328125 C194.18194285 74.24935185 207.87516396 87.51429284 218.9375 102.25 C219.84769224 103.40984885 220.75925582 104.5686223 221.671875 105.7265625 C248.82917254 140.57426427 266.0497782 181.20255572 274.1875 224.5 C274.33880371 225.30155518 274.49010742 226.10311035 274.64599609 226.92895508 C277.34592378 242.30939058 278.32096327 257.71827225 278.25 273.3125 C278.24908859 273.73350479 278.24908859 273.73350479 278.24447632 275.86404419 C278.19158358 290.48225401 277.36888238 304.81247057 274.9375 319.25 C274.77121094 320.23887207 274.60492187 321.22774414 274.43359375 322.24658203 C266.43489794 367.86136677 246.82182138 410.15661338 217.9375 446.25 C217.23496094 447.14589844 216.53242187 448.04179688 215.80859375 448.96484375 C207.12387775 459.85672514 197.66948642 470.34473468 186.9375 479.25 C185.53950305 480.51845283 184.14381272 481.78945084 182.75 483.0625 C157.3897396 505.53307086 127.02448767 522.87436413 95.1875 534.25 C94.37788818 534.54108643 93.56827637 534.83217285 92.73413086 535.13208008 C87.78785312 536.83202489 83.19386873 538.25 77.9375 538.25 C75.28125 536.2578125 75.28125 536.2578125 72.9375 533.25 C72.50953125 532.71858398 72.0815625 532.18716797 71.640625 531.63964844 C70.20060551 529.82824461 68.81549577 527.98398775 67.4375 526.125 C66.92195557 525.43414307 66.40641113 524.74328613 65.87524414 524.03149414 C61.32783236 517.88451092 57.0148674 511.58700155 52.72900391 505.25610352 C49.35403357 500.28153261 45.8940545 495.39020398 42.3125 490.5625 C20.94866459 461.63507069 20.94866459 461.63507069 21.56640625 449.6171875 C23.13157095 439.63308428 31.54350389 431.49850751 39.375 425.75 C47.66397274 420.27953422 56.54655161 415.68586523 65.28710938 410.98681641 C97.51709768 393.65879284 123.82587753 370.20578978 138.9375 336.25 C139.48019531 335.05117188 140.02289062 333.85234375 140.58203125 332.6171875 C156.05236303 296.35002997 156.4746769 253.52920089 142.04589844 216.87060547 C136.83975392 204.56162855 130.43458696 192.59983525 121.9375 182.25 C121.73672852 181.99798828 121.73672852 181.99798828 120.72070312 180.72265625 C96.33677788 150.14191392 61.3167522 131.19246068 22.60498047 125.93310547 C-17.33649116 121.43798112 -58.35673053 130.22170052 -90.30541992 155.33422852 C-122.73664895 181.48397808 -142.46189228 217.09201833 -147.4609375 258.5546875 C-147.73966977 261.45500973 -147.93205553 264.33945778 -148.0625 267.25 C-148.10375 268.12914062 -148.145 269.00828125 -148.1875 269.9140625 C-149.11669191 311.14695349 -134.28749717 349.38737501 -106.0625 379.25 C-105.32773437 380.04921875 -104.59296875 380.8484375 -103.8359375 381.671875 C-94.55029042 391.42335722 -83.54425386 399.28369226 -72.0625 406.25 C-72.58199219 407.10980469 -73.10148438 407.96960938 -73.63671875 408.85546875 C-80.5231807 420.44588851 -85.13533221 432.04204779 -88.0625 445.25 C-104.18093371 439.15113319 -118.77372055 427.08781507 -131.0625 415.25 C-131.3291748 414.99621582 -131.3291748 414.99621582 -132.67871094 413.71191406 C-140.97903083 405.7819375 -148.43709961 397.62740644 -155.0625 388.25 C-155.47983398 387.66637695 -155.89716797 387.08275391 -156.32714844 386.48144531 C-162.91864496 377.19546876 -168.33071355 367.60078286 -173.0625 357.25 C-173.40023437 356.51797363 -173.73796875 355.78594727 -174.0859375 355.03173828 C-179.67655549 342.77598974 -183.93448613 330.3523799 -187.0625 317.25 C-187.16836426 316.81469971 -187.16836426 316.81469971 -187.70410156 314.61181641 C-193.53736202 289.48072518 -193.94059999 259.44510557 -188.0625 234.25 C-187.88557617 233.46367187 -187.70865234 232.67734375 -187.52636719 231.8671875 C-183.72264527 215.31212838 -177.88671319 200.03883279 -169.99121094 185.02197266 C-169.16913758 183.45346361 -168.36811767 181.87395963 -167.5703125 180.29296875 C-145.46034397 137.63447014 -103.99515988 105.24261851 -58.77246094 90.57299805 C-7.03995745 74.39579311 48.26440133 79.87830696 96.27490234 104.81054688 C111.09538848 112.82279575 124.46124927 123.0990553 136.875 134.4375 C137.38256836 134.90019287 137.89013672 135.36288574 138.41308594 135.83959961 C151.31117665 147.88557056 162.2854715 162.92609797 170.9375 178.25 C171.2979541 178.88341309 171.6584082 179.51682617 172.02978516 180.16943359 C196.7240912 223.90792112 203.23701971 276.56836559 189.91772461 325.06640625 C188.71635489 329.17299401 187.36294332 333.21626406 185.9375 337.25 C185.79320557 337.65887451 185.79320557 337.65887451 185.06298828 339.72802734 C173.92147493 370.60972336 154.55408877 400.37722397 128.9375 421.25 C127.87225988 422.15088093 126.80716945 423.05193888 125.7421875 423.953125 C108.43053054 438.40623587 88.55267653 448.59108378 68.38671875 458.484375 C63.29045337 461.09310881 63.29045337 461.09310881 61.9375 464.25 C62.61183002 474.4998163 69.83758206 482.19972615 76.19921875 489.82421875 C78.58617481 491.78205911 79.82322322 492.15549781 82.9375 492.25 C85.935231 491.41966091 88.72377152 490.19967128 91.5625 488.9375 C92.39644287 488.57430664 93.23038574 488.21111328 94.08959961 487.83691406 C121.29251095 475.77849676 144.92386324 459.40758836 166.31298828 438.81152344 C167.69724662 437.48093787 169.0952721 436.16469913 170.49609375 434.8515625 C177.04956303 428.56677378 182.48869929 421.48497097 187.9375 414.25 C188.35644531 413.7024707 188.77539062 413.15494141 189.20703125 412.59082031 C212.06681917 382.60095569 225.67862182 347.24766811 231.9375 310.25 C232.06882324 309.48187988 232.20014648 308.71375977 232.33544922 307.92236328 C241.64785946 249.91897775 226.48161726 186.74973065 192.33569336 139.16748047 C156.37921307 89.9626563 103.53168935 56.1851717 43.140625 46.25 C38.08367781 45.48060751 33.02225315 44.80624056 27.9375 44.25 C27.1012207 44.1557373 26.26494141 44.06147461 25.40332031 43.96435547 C-3.73051799 40.97173959 -32.80190314 43.91612879 -61.0625 51.25 C-61.43310547 51.34394043 -61.43310547 51.34394043 -63.30859375 51.81933594 C-118.61041086 66.05067511 -167.75202522 104.59425582 -196.90234375 153.4375 C-215.81270693 186.49212621 -229.07128319 222.75774709 -230.0625 261.25 C-230.08828125 262.12076172 -230.1140625 262.99152344 -230.140625 263.88867188 C-231.42991842 313.42977158 -218.96712789 365.84631143 -189.0625 406.25 C-188.29550781 407.28769531 -187.52851563 408.32539063 -186.73828125 409.39453125 C-184.23813822 412.72689598 -181.66592277 415.99791626 -179.0625 419.25 C-178.64661621 419.77174805 -178.23073242 420.29349609 -177.80224609 420.83105469 C-166.6449289 434.71821567 -154.11627696 447.4438871 -139.74951172 458.00732422 C-138.09148451 459.22864961 -136.45373502 460.47377916 -134.81640625 461.72265625 C-111.22766486 479.42911081 -84.32931266 491.34293213 -56.0625 499.25 C-56.35253906 498.7653125 -56.35253906 498.7653125 -57.8203125 496.3125 C-61.95134225 489.27451492 -65.71304522 482.2861847 -68.5625 474.625 C-68.80500488 473.9753125 -69.04750977 473.325625 -69.29736328 472.65625 C-74.46085018 458.17595509 -72.84387014 443.13895951 -66.49780273 429.37231445 C-58.75791896 413.39448245 -47.51540597 401.76564966 -33.61328125 391.0078125 C-21.49870982 381.63108885 -9.72416464 371.70491672 1.5859375 361.37109375 C3.17166064 359.94078202 4.78200642 358.53736446 6.4140625 357.16015625 C16.48760091 348.61241437 16.48760091 348.61241437 17.15625 342.12890625 C16.5999957 328.75562583 2.99606445 319.09704369 -5.90112305 310.54833984 C-25.9768385 291.19768906 -25.9768385 291.19768906 -27.3984375 278.171875 C-27.5434737 266.39493568 -24.71091512 258.91019027 -16.47265625 250.390625 C-10.0354278 244.67328109 -3.77942046 243.55198385 4.73046875 243.87890625 C14.51997102 245.01167448 20.8536626 249.62657926 26.9375 257.25 C31.05386929 263.14027428 31.44239399 269.3914797 31.5234375 276.40258789 C31.65640579 282.53046174 33.03976983 287.13993638 37.171875 291.734375 C38.00203125 292.48203125 38.8321875 293.2296875 39.6875 294 C51.01550117 304.91577406 58.60683867 320.17565422 59.23828125 336.046875 C59.25756054 337.69780872 59.26109355 339.34899098 59.25 341 C59.24508545 341.87180908 59.2401709 342.74361816 59.23510742 343.6418457 C58.83747369 365.71969395 47.64136609 379.15470813 32.43554688 393.82714844 C29.9854406 396.15427024 27.46818542 398.3891644 24.89453125 400.578125 C21.74607951 403.2678203 18.69445342 406.06465029 15.625 408.84375 C13.47448085 410.76921482 11.31115815 412.67600846 9.13671875 414.57421875 C-15.88143271 436.45702807 -15.88143271 436.45702807 -16.75 449.125 C-16.16718758 460.5335532 -9.28654251 468.57488382 -2.046875 476.77734375 C1.11492065 480.38978852 3.9680621 484.19811054 6.8125 488.0625 C10.88581866 493.57743193 15.08166121 498.95539167 19.4375 504.25 C24.86120041 510.85188556 30.04825214 517.59814896 35.12109375 524.47265625 C36.94217047 526.93735155 38.80375074 529.35683485 40.72265625 531.74609375 C41.15094727 532.28782227 41.57923828 532.82955078 42.02050781 533.38769531 C43.1667707 534.83258745 44.32700262 536.26636711 45.48828125 537.69921875 C46.9375 540.25 46.9375 540.25 46.98046875 542.95703125 C45.9375 545.25 45.9375 545.25 43.87182617 546.32421875 C40.26160486 547.46324523 36.69404445 547.96165857 32.9453125 548.35546875 C32.55316055 548.39741112 32.55316055 548.39741112 30.56863403 548.60966492 C20.99432161 549.54854115 11.42482105 549.60127435 1.8125 549.5625 C1.3412822 549.56158859 1.3412822 549.56158859 -1.04336548 549.55697632 C-15.58531382 549.50972972 -29.72825855 548.85790375 -44.0625 546.25 C-44.97708984 546.09966309 -45.89167969 545.94932617 -46.83398438 545.79443359 C-111.86484469 535.01936159 -175.43579523 496.85873132 -214.83300781 443.87207031 C-215.99372154 442.34073949 -217.21028192 440.85220618 -218.4296875 439.3671875 C-249.46972428 401.20320786 -266.04172032 352.4979305 -272.0625 304.25 C-272.1670752 303.41436523 -272.27165039 302.57873047 -272.37939453 301.71777344 C-273.36661009 292.55203325 -273.3061939 283.3331883 -273.3125 274.125 C-273.31317474 273.23772217 -273.31384949 272.35044434 -273.31454468 271.4362793 C-273.29698869 256.85726512 -272.59357092 242.63636019 -270.0625 228.25 C-269.89089355 227.26225586 -269.71928711 226.27451172 -269.54248047 225.25683594 C-261.37851984 179.74585614 -242.06629346 137.24991616 -213.0625 101.25 C-212.68996094 100.77498047 -212.68996094 100.77498047 -210.8046875 98.37109375 C-197.58660386 82.07162405 -182.09247679 66.52311508 -165.0625 54.25 C-163.88934828 53.35231849 -162.71885753 52.45115086 -161.55078125 51.546875 C-147.22086266 40.56566042 -131.3715614 31.92150972 -115.0625 24.25 C-113.98613281 23.74082031 -112.90976562 23.23164062 -111.80078125 22.70703125 C-86.07116102 11.13025399 -58.06196985 4.26724391 -30.0625 1.25 C-29.19407471 1.1557373 -28.32564941 1.06147461 -27.4309082 0.96435547 C-18.29608572 0.08674685 -9.16914495 0.00670899 0 0 Z " fill="#017582" transform="translate(510.0625,78.75)"/>
<path d="M0 0 C3.41893633 2.91466843 6.7292354 5.92063987 10 9 C10.61488281 9.55042969 11.22976563 10.10085938 11.86328125 10.66796875 C30.67134492 28.17892458 41.1077052 56.72635824 42.28515625 81.92578125 C43.12514085 112.86770523 32.26176616 141.72015711 11.48535156 164.67333984 C8.75338232 167.55247068 5.91996462 170.31259894 3 173 C1.46980666 169.93961331 2.50270426 167.35424306 3 164 C4.07186786 149.35807688 3.01077507 134.23060195 -3.9375 121.0625 C-5.97806893 116.99380464 -6.16145283 114.83149066 -4.9375 110.4375 C-4.30757072 108.61941143 -3.6622333 106.80657245 -3 105 C1.87006004 87.75425798 -0.84213235 69.38728547 -9.3125 53.73828125 C-20.23810362 36.00946612 -35.92673962 25.52008128 -55.84765625 20.24609375 C-72.45660801 16.74818491 -90.66880252 19.05019888 -105.22265625 27.9765625 C-121.46762543 38.61771954 -132.14216728 52.98292487 -136.74609375 72.09765625 C-139.83144832 88.58834446 -137.49620197 105.00759606 -130 120 C-129.58105469 120.83789062 -129.16210938 121.67578125 -128.73046875 122.5390625 C-121.81516947 135.09421681 -111.83057423 143.3810517 -100 151 C-98.11833188 152.28193326 -96.2426884 153.57278349 -94.375 154.875 C-93.59898437 155.40867187 -92.82296875 155.94234375 -92.0234375 156.4921875 C-90.13155397 157.90196943 -88.494959 159.17387919 -87 161 C-86.86986036 164.38363076 -87.15406318 166.79894295 -89.14453125 169.625 C-94.04747963 174.78861146 -99.96729844 179.01701209 -105.59765625 183.3515625 C-108.80074141 185.82280178 -111.90731197 188.3921626 -115 191 C-128.20835756 186.2754721 -139.30446891 176.86066179 -149 167 C-149.41056641 166.58878906 -149.41056641 166.58878906 -151.48828125 164.5078125 C-165.73284357 149.50058795 -174.0352902 130.84858156 -179 111 C-179.2475 110.04351562 -179.495 109.08703125 -179.75 108.1015625 C-185.62861017 80.25981154 -179.00606597 49.85851762 -164 26 C-147.04865583 0.34112645 -122.00257089 -15.97447496 -92.12890625 -22.57861328 C-60.51186762 -28.83675648 -24.93077256 -20.4540394 0 0 Z " fill="#017582" transform="translate(582,266)"/>
<path d="M0 0 C6.09704254 4.80839317 11.22006283 10.29430926 13 18 C13.30418414 21.39387476 13.54656602 24.74654449 13.5859375 28.15258789 C13.71890579 34.28046174 15.10226983 38.88993638 19.234375 43.484375 C20.06453125 44.23203125 20.8946875 44.9796875 21.75 45.75 C33.07800117 56.66577406 40.66933867 71.92565422 41.30078125 87.796875 C41.32006054 89.44780872 41.32359355 91.09899098 41.3125 92.75 C41.31004272 93.18590454 41.31004272 93.18590454 41.29760742 95.3918457 C40.89997369 117.46969395 29.70386609 130.90470813 14.49804688 145.57714844 C12.0479406 147.90427024 9.53068542 150.1391644 6.95703125 152.328125 C3.80857951 155.0178203 0.75695342 157.81465029 -2.3125 160.59375 C-4.46301915 162.51921482 -6.62634185 164.42600846 -8.80078125 166.32421875 C-33.81893271 188.20702807 -33.81893271 188.20702807 -34.6875 200.875 C-34.10468758 212.2835532 -27.22404251 220.32488382 -19.984375 228.52734375 C-16.82257935 232.13978852 -13.9694379 235.94811054 -11.125 239.8125 C-7.05168134 245.32743193 -2.85583879 250.70539167 1.5 256 C6.92370041 262.60188556 12.11075214 269.34814896 17.18359375 276.22265625 C19.00467047 278.68735155 20.86625074 281.10683485 22.78515625 283.49609375 C23.21344727 284.03782227 23.64173828 284.57955078 24.08300781 285.13769531 C25.2292707 286.58258745 26.38950262 288.01636711 27.55078125 289.44921875 C29 292 29 292 29.04296875 294.70703125 C28 297 28 297 25.9296875 298.07397461 C22.34444543 299.20720987 18.80522577 299.71448023 15.08203125 300.109375 C14.30164993 300.19346619 13.52126862 300.27755737 12.71723938 300.36419678 C3.67047872 301.24990839 -5.37196928 301.30146199 -14.45483398 301.26074219 C-17.35485926 301.24984077 -20.25428807 301.26080447 -23.15429688 301.2734375 C-25.01562635 301.27211862 -26.87695547 301.26956188 -28.73828125 301.265625 C-29.59658035 301.26967346 -30.45487946 301.27372192 -31.33918762 301.27789307 C-40.80735528 301.20350478 -40.80735528 301.20350478 -44.47875977 297.51391602 C-44.67884644 297.2235144 -44.67884644 297.2235144 -45.69140625 295.75390625 C-46.15522705 295.09084473 -46.61904785 294.4277832 -47.09692383 293.74462891 C-47.58056396 293.02452637 -48.0642041 292.30442383 -48.5625 291.5625 C-49.07772217 290.81403809 -49.59294434 290.06557617 -50.1237793 289.29443359 C-55.53801868 281.35814515 -60.64197423 273.22317402 -65.71044922 265.06347656 C-67.4022702 262.35630675 -69.13872982 259.67881684 -70.875 257 C-83.01660303 237.84911405 -93.84957475 216.3651699 -89 193.125 C-82.89080428 171.78543728 -68.71297269 156.03837677 -51.55078125 142.7578125 C-39.43620982 133.38108885 -27.66166464 123.45491672 -16.3515625 113.12109375 C-14.76583936 111.69078202 -13.15549358 110.28736446 -11.5234375 108.91015625 C-1.44989909 100.36241437 -1.44989909 100.36241437 -0.78125 93.87890625 C-1.3375043 80.50562583 -14.94143555 70.84704369 -23.83862305 62.29833984 C-43.9143385 42.94768906 -43.9143385 42.94768906 -45.3359375 29.921875 C-45.4809737 18.14493568 -42.64841512 10.66019027 -34.41015625 2.140625 C-24.89753554 -6.30818562 -10.74554452 -6.64010392 0 0 Z " fill="#F1B422" transform="translate(528,327)"/>
<path d="M0 0 C1.10923828 0.00064453 2.21847656 0.00128906 3.36132812 0.00195312 C3.94043945 0.01000977 3.94043945 0.01000977 6.87109375 0.05078125 C8.03318359 0.04755859 9.19527344 0.04433594 10.39257812 0.04101562 C19.04167429 0.09636179 19.04167429 0.09636179 21.30859375 2.36328125 C21.52653969 5.34447127 21.62004784 8.23544196 21.62744141 11.21923828 C21.63748703 12.13636597 21.64753265 13.05349365 21.65788269 13.99841309 C21.6888506 17.03930008 21.70578753 20.0800985 21.72265625 23.12109375 C21.74135696 25.22574635 21.76092953 27.33039138 21.78134155 29.43502808 C21.83278468 34.9817865 21.87234509 40.52856927 21.90948486 46.07543945 C21.94944832 51.7326465 22.0005755 57.38975122 22.05078125 63.046875 C22.14768469 74.152272 22.23204317 85.25772662 22.30859375 96.36328125 C23.88438946 94.64337058 25.45822045 92.92165971 27.03125 91.19921875 C27.90789307 90.24063965 28.78453613 89.28206055 29.68774414 88.29443359 C32.89856417 84.70345965 35.93487017 80.9926533 38.9609375 77.24609375 C42.80059915 72.53116813 46.70991318 67.85771114 50.74633789 63.30981445 C52.30859375 61.36328125 52.30859375 61.36328125 54.05639648 58.53198242 C57.23365179 53.78540072 59.40411434 50.80375153 65.12353516 49.48095703 C69.55567702 49.1484226 73.94265884 49.39986188 78.37109375 49.67578125 C79.91974703 49.73104978 81.46859095 49.78122395 83.01757812 49.82617188 C86.78601499 49.94651699 90.54517387 50.13568714 94.30859375 50.36328125 C94.89916992 52.23291016 94.89916992 52.23291016 95.30859375 54.36328125 C93.859375 56.44921875 93.859375 56.44921875 91.62109375 58.73828125 C91.20472656 59.17720703 91.20472656 59.17720703 89.09765625 61.3984375 C88.64422852 61.8742627 88.19080078 62.35008789 87.72363281 62.84033203 C85.21872363 65.53626431 82.86931823 68.36422011 80.49609375 71.17578125 C75.94909357 76.52416284 71.26880581 81.72512288 66.48413086 86.86132812 C62.67134883 90.9551459 58.95128113 95.11775476 55.30859375 99.36328125 C56.77363626 103.51295663 58.8928104 106.95083921 61.37109375 110.55078125 C62.26699359 111.87277147 63.16140294 113.19577245 64.0546875 114.51953125 C64.56112793 115.26976562 65.06756836 116.02 65.58935547 116.79296875 C69.08272234 122.0156564 72.50240209 127.28712294 75.93359375 132.55078125 C80.14223208 139.00704537 84.35729609 145.45895286 88.609375 151.88671875 C89.23497314 152.83337402 89.86057129 153.7800293 90.50512695 154.75537109 C92.63461559 157.83472639 94.9331445 160.71178563 97.375 163.546875 C98.67454796 166.07528421 97.93986701 167.66511942 97.30859375 170.36328125 C68.37143231 173.4970958 68.37143231 173.4970958 60.76220703 168.78710938 C56.73625986 164.37667949 54.75016713 158.95094313 52.63134766 153.44091797 C50.17624295 147.7286533 46.67340932 142.63540688 43.30859375 137.42578125 C42.0582494 135.41688095 40.80822859 133.40777923 39.55859375 131.3984375 C37.34754157 127.85142948 34.96387644 124.59255236 32.30859375 121.36328125 C26.28739835 126.87496987 21.87961783 131.65546592 21.24804688 139.99029541 C21.13813664 143.99691907 21.19117738 147.98254597 21.30859375 151.98828125 C21.33699164 154.45504742 21.3514172 156.92135931 21.35791016 159.38827515 C21.36653833 160.91092772 21.39035712 162.43358856 21.43115234 163.95571899 C21.4639541 165.75840423 21.39491561 167.56236522 21.30859375 169.36328125 C18.15985336 172.51202164 14.68959224 171.65804998 10.39257812 171.68554688 C9.23048828 171.68232422 8.06839844 171.67910156 6.87109375 171.67578125 C5.71287109 171.69189453 4.55464844 171.70800781 3.36132812 171.72460938 C2.25208984 171.72525391 1.14285156 171.72589844 0 171.7265625 C-0.50946167 171.72805298 -0.50946167 171.72805298 -3.08764648 171.7355957 C-5.69140625 171.36328125 -5.69140625 171.36328125 -7.3303318 170.25279999 C-9.3533022 167.44440072 -9.0691453 165.1949581 -9.07235718 161.75866699 C-9.07703715 161.08443428 -9.08171712 160.41020156 -9.08653891 159.71553755 C-9.09852558 157.45143558 -9.08901782 155.18793481 -9.07958984 152.92382812 C-9.08365393 151.30265448 -9.0889949 149.6814836 -9.09552002 148.06031799 C-9.10921886 143.65334113 -9.10388443 139.24657451 -9.09438276 134.83959389 C-9.08679943 130.23253427 -9.09382808 125.62549292 -9.09854126 121.01843262 C-9.10400269 113.2809729 -9.09679705 105.54359903 -9.08251953 97.80615234 C-9.06619227 88.85438072 -9.0714805 79.90281407 -9.08799875 70.95104742 C-9.1016026 63.27200485 -9.10353868 55.59302406 -9.09568274 47.91397333 C-9.09100015 43.324649 -9.09039741 38.73542108 -9.10029221 34.14610291 C-9.10894361 29.8319582 -9.10297357 25.51807835 -9.08560944 21.20396233 C-9.08163479 19.618468 -9.0827953 18.03295146 -9.08939743 16.4474659 C-9.0975648 14.28730584 -9.08735086 12.12800071 -9.07235718 9.96789551 C-9.07179164 9.36284306 -9.07179164 9.36284306 -9.06892967 6.30091095 C-8.69140625 3.36328125 -8.69140625 3.36328125 -7.3303318 1.47376251 C-4.89214866 -0.17826902 -2.91955854 -0.00854145 0 0 Z " fill="#017582" transform="translate(572.69140625,672.63671875)"/>
<path d="M0 0 C0.92611084 0.00563965 1.85222168 0.0112793 2.80639648 0.01708984 C9.48090627 0.13567996 15.41112064 0.72092946 21.625 3.3125 C22.61628906 3.7146875 23.60757813 4.116875 24.62890625 4.53125 C37.84300583 10.48503705 44.05701208 19.41995654 49.625 32.3125 C50.805933 35.855299 50.89528374 38.59609861 50.625 42.3125 C47.76425162 44.21966559 46.60103463 44.66387465 43.3515625 45.1640625 C42.9390625 45.22851562 42.9390625 45.22851562 40.8515625 45.5546875 C39.99304688 45.68101562 39.13453125 45.80734375 38.25 45.9375 C37.82460938 46.00453125 37.82460938 46.00453125 35.671875 46.34375 C27.01230145 47.66561637 27.01230145 47.66561637 23.625 47.3125 C21.25075179 44.93825179 20.90129457 43.25479693 19.9375 40.0625 C17.974045 34.51392162 15.7037327 31.31013841 10.625 28.3125 C4.69932607 25.69152884 -1.13061857 26.01080115 -7.375 27.3125 C-14.29494197 30.83537955 -17.81095823 36.1344637 -20.375 43.3125 C-23.62503177 58.38535141 -23.8674692 76.07028979 -17.375 90.3125 C-14.04293571 95.00677093 -10.88186576 97.02664922 -5.5 99 C2.46700457 100.17161832 8.75775778 99.10051183 15.3125 94.375 C18.76939693 89.79694731 20.62179938 84.65720975 22.625 79.3125 C29.91153847 79.69076293 37.19815553 80.13009354 44.4375 81.0625 C45.39269531 81.18109375 46.34789062 81.2996875 47.33203125 81.421875 C49.625 82.3125 49.625 82.3125 51.07421875 84.5 C52.43199134 91.43330682 47.44092425 99.37749602 43.8125 105.125 C35.79045502 116.21370015 26.6011162 122.40164641 13 124.8125 C11.83210937 124.9671875 10.66421875 125.121875 9.4609375 125.28125 C8.52507813 125.6215625 7.58921875 125.961875 6.625 126.3125 C5.2265625 129.40625 5.2265625 129.40625 4.625 132.3125 C5.20507812 132.33828125 5.78515625 132.3640625 6.3828125 132.390625 C12.84342894 132.85971266 17.02368918 134.35238769 21.4375 139.375 C24.46521642 144.31495837 24.04376562 149.71553639 23.625 155.3125 C21.64235396 161.75609962 16.40743567 166.24670821 10.59375 169.421875 C2.78426388 172.5107016 -7.13478404 172.76446184 -15.0625 170 C-19.6146389 167.68098584 -19.6146389 167.68098584 -21.375 165.3125 C-21.79671865 160.29021424 -21.40709903 155.65735631 -18.3125 151.625 C-17.673125 151.191875 -17.03375 150.75875 -16.375 150.3125 C-15.73433594 150.5290625 -15.09367188 150.745625 -14.43359375 150.96875 C-7.94270393 153.05821677 -2.08440426 154.45950936 4.625 152.3125 C4.295 150.3325 3.965 148.3525 3.625 146.3125 C-0.20496083 145.03584639 -3.86581989 144.94189106 -7.87890625 144.69140625 C-10.375 144.3125 -10.375 144.3125 -12.375 142.3125 C-12.51792693 136.57160151 -10.87345268 130.80682648 -9.375 125.3125 C-10.00664063 125.24933594 -10.63828125 125.18617188 -11.2890625 125.12109375 C-24.04115591 123.37549019 -35.4244277 117.54168993 -43.375 107.3125 C-55.34125713 89.67235465 -56.80215329 66.40344829 -53.84375 45.77734375 C-53.1839221 42.53916662 -52.39172031 39.45509004 -51.375 36.3125 C-51.24158203 35.87292969 -51.24158203 35.87292969 -50.56640625 33.6484375 C-45.68244663 19.62604677 -35.55717738 10.08071835 -22.59765625 3.57421875 C-15.14798157 0.65755824 -7.95507316 -0.05081259 0 0 Z " fill="#017582" transform="translate(854.375,719.6875)"/>
<path d="M0 0 C10.5443099 9.96340468 16.93020164 23.23487302 17.67260742 37.81347656 C17.69702338 40.94607008 17.71298348 44.07824208 17.71484375 47.2109375 C17.72708984 48.31179688 17.73933594 49.41265625 17.75195312 50.546875 C17.75388672 51.59617187 17.75582031 52.64546875 17.7578125 53.7265625 C17.76192139 54.68336914 17.76603027 55.64017578 17.77026367 56.62597656 C17.52734375 58.9609375 17.52734375 58.9609375 15.52734375 60.9609375 C13.12055134 61.17799387 10.82514572 61.27228607 8.41552734 61.27978516 C7.6837175 61.28983078 6.95190765 61.2998764 6.19792175 61.31022644 C3.77388307 61.34116986 1.34995537 61.35812424 -1.07421875 61.375 C-2.75288862 61.39370271 -4.431549 61.41327544 -6.11019897 61.4336853 C-10.5324546 61.48510745 -14.95474074 61.52467902 -19.37713623 61.56182861 C-23.88822032 61.60180524 -28.39917638 61.65292642 -32.91015625 61.703125 C-41.76423311 61.80000357 -50.61838209 61.88436999 -59.47265625 61.9609375 C-59.18366057 63.86819572 -58.88649262 65.77421668 -58.5859375 67.6796875 C-58.50363892 68.21045898 -58.50363892 68.21045898 -58.0871582 70.89648438 C-57.01286951 76.25384302 -55.03206127 80.26393792 -51.34765625 84.2734375 C-42.41435945 89.51689432 -32.61149884 90.24447266 -22.671875 87.78125 C-16.05114405 85.3117056 -11.79754378 80.29993658 -7.47265625 74.9609375 C-4.92939178 75.89427327 -2.38809037 76.83245358 0.15234375 77.7734375 C0.50876953 77.90395508 0.50876953 77.90395508 2.3125 78.56445312 C13.90494358 82.87173721 13.90494358 82.87173721 15.77734375 86.1484375 C15.36331144 90.80630094 12.54480979 93.53868943 9.52734375 96.9609375 C8.8725 97.72148438 8.21765625 98.48203125 7.54296875 99.265625 C-1.8139724 109.40800281 -14.21413031 114.46565645 -27.890625 115.27734375 C-42.46656942 115.80260301 -56.49326597 113.89691511 -68.47265625 104.9609375 C-69.17777344 104.44789063 -69.88289063 103.93484375 -70.609375 103.40625 C-82.75870901 93.73306597 -88.13597949 78.58942765 -90.09765625 63.6484375 C-91.94465472 43.70769472 -89.10501554 23.64806917 -76.625 7.49609375 C-58.15172826 -14.26280527 -22.46993246 -18.52970734 0 0 Z M-52.72265625 20.0859375 C-57.5365801 26.2019883 -59.47265625 32.23709177 -59.47265625 39.9609375 C-43.63265625 39.9609375 -27.79265625 39.9609375 -11.47265625 39.9609375 C-10.10463776 33.12084507 -10.97787479 27.74432366 -14.28515625 21.5859375 C-18.70522531 16.28185463 -23.0240971 13.29304958 -29.9609375 12.625 C-39.35401922 12.52905432 -45.98505145 13.04888359 -52.72265625 20.0859375 Z " fill="#017582" transform="translate(222.47265625,731.0390625)"/>
<path d="M0 0 C11.18341543 10.32480388 17.04697324 25.32241579 17.90966797 40.36206055 C18.5771784 60.10751656 16.40725774 79.16155211 3.22265625 94.81640625 C2.09987738 95.96441611 0.95504449 97.09144237 -0.21484375 98.19140625 C-0.74464844 98.72894531 -1.27445313 99.26648438 -1.8203125 99.8203125 C-11.54849721 109.04013602 -25.66608937 112.20129512 -38.71484375 112.56640625 C-53.45783799 112.11964885 -67.52027003 107.80792274 -78.58984375 97.75390625 C-82.37649853 93.6490976 -85.10855614 89.31215125 -87.65234375 84.37890625 C-87.97058105 83.764104 -88.28881836 83.14930176 -88.61669922 82.51586914 C-93.66216029 71.90735932 -94.70506907 60.79075496 -94.58984375 49.19140625 C-94.60144531 48.02351562 -94.61304688 46.855625 -94.625 45.65234375 C-94.5662571 27.99031103 -89.41855532 12.42986482 -76.94921875 -0.3984375 C-55.3756999 -19.4139534 -21.62160086 -17.65573403 0 0 Z M-56.52734375 19.75390625 C-65.15280192 32.34051233 -64.17303072 50.49821864 -61.8984375 64.8203125 C-60.35273543 72.44283187 -58.27241967 78.10368905 -52.09375 83.03515625 C-45.50017387 87.09274156 -38.75293571 86.87358652 -31.21484375 86.19140625 C-25.29467037 84.57347067 -21.63951895 81.27949511 -18.21484375 76.19140625 C-11.67652364 62.5129123 -11.77604709 41.82488571 -15.83984375 27.44140625 C-18.3233811 21.08006495 -21.49926995 16.94521433 -27.21484375 13.25390625 C-37.69695468 9.51863287 -49.31979918 11.21357972 -56.52734375 19.75390625 Z " fill="#017582" transform="translate(767.21484375,733.80859375)"/>
<path d="M0 0 C1.15757812 -0.00257813 2.31515625 -0.00515625 3.5078125 -0.0078125 C4.72210938 -0.00007812 5.93640625 0.00765625 7.1875 0.015625 C8.40179688 0.00789062 9.61609375 0.00015625 10.8671875 -0.0078125 C11.44597656 -0.00652344 11.44597656 -0.00652344 14.375 0 C15.44105469 0.00225586 16.50710938 0.00451172 17.60546875 0.00683594 C20.1875 0.265625 20.1875 0.265625 22.1875 2.265625 C22.39436996 4.78735883 22.47800446 7.20169569 22.47460938 9.7253418 C22.48144241 10.49467545 22.48827545 11.26400909 22.49531555 12.05665588 C22.50892402 13.73067479 22.51796414 15.40473554 22.52302551 17.07880211 C22.53130235 19.73162215 22.55179885 22.38409588 22.57556152 25.03681946 C22.62386248 30.6755366 22.65671549 36.31428863 22.6875 41.953125 C22.7232019 48.47045883 22.76526655 54.98762557 22.82344055 61.5048008 C22.84344117 64.11208476 22.85181727 66.71923935 22.85974121 69.32658386 C22.87272343 70.93737243 22.88624517 72.54815677 22.90039062 74.15893555 C22.89940872 74.87868561 22.89842682 75.59843567 22.89741516 76.33999634 C22.96703565 82.06120747 24.39461642 86.88697426 26.1875 92.265625 C28.5625 93.390625 28.5625 93.390625 31.1875 94.265625 C32.1775 94.595625 33.1675 94.925625 34.1875 95.265625 C41.3636713 95.97280828 47.23719892 95.56619806 53.1875 91.265625 C58.32490379 86.26706996 60.46813273 79.54449297 60.66546631 72.46942139 C60.67023987 71.79066956 60.67501343 71.11191772 60.67993164 70.41259766 C60.69666428 69.67337067 60.71339691 68.93414368 60.7306366 68.17251587 C60.78241186 65.75830193 60.81479262 63.34422577 60.84765625 60.9296875 C60.88190969 59.2419426 60.91769555 57.55422816 60.9549408 55.86654663 C61.04970289 51.44525532 61.12934946 47.0238443 61.20404053 42.60217285 C61.32434524 35.5043547 61.45816433 28.40691286 61.61019707 21.30970383 C61.65962462 18.83134421 61.69667769 16.35300285 61.73292542 13.87442017 C61.76292163 12.36369816 61.79340708 10.85298575 61.82446289 9.34228516 C61.83126068 8.65138794 61.83805847 7.96049072 61.84506226 7.24865723 C61.95999594 2.49312906 61.95999594 2.49312906 64.1875 0.265625 C68.31501148 -0.19253488 72.47500768 -0.05838358 76.625 -0.046875 C77.78322266 -0.06298828 78.94144531 -0.07910156 80.13476562 -0.09570312 C81.24400391 -0.09634766 82.35324219 -0.09699219 83.49609375 -0.09765625 C84.00555542 -0.09914673 84.00555542 -0.09914673 86.58374023 -0.10668945 C89.65379546 0.3323011 90.32837033 0.84672821 92.1875 3.265625 C92.56502342 5.42238617 92.56502342 5.42238617 92.56845093 7.9720459 C92.5769104 8.93946213 92.58536987 9.90687836 92.59408569 10.90361023 C92.588013 11.9634462 92.58194031 13.02328217 92.57568359 14.11523438 C92.58094055 15.23251419 92.58619751 16.34979401 92.59161377 17.50093079 C92.60484615 21.20388663 92.59606391 24.90641459 92.5859375 28.609375 C92.58795729 31.17622968 92.59086794 33.74308381 92.59463501 36.30993652 C92.59906277 41.6935016 92.59289772 47.07690507 92.57861328 52.46044922 C92.56228638 58.68567278 92.56757481 64.91060159 92.5840925 71.135818 C92.59934281 77.1228795 92.59773384 83.10979669 92.5889473 89.09687805 C92.58694189 91.64545228 92.58941645 94.194034 92.59638596 96.74259949 C92.60397995 100.30060941 92.59242433 103.85804837 92.57568359 107.41601562 C92.58175629 108.47585159 92.58782898 109.53568756 92.59408569 110.62763977 C92.58562622 111.595056 92.57716675 112.56247223 92.56845093 113.5592041 C92.56731985 114.40059181 92.56618877 115.24197952 92.56502342 116.10886383 C92.09964688 118.76752286 91.32047242 119.6560158 89.1875 121.265625 C86.76733398 121.62207031 86.76733398 121.62207031 83.93359375 121.59375 C83.4240918 121.59117187 83.4240918 121.59117187 80.84570312 121.578125 C79.78287109 121.5575 78.72003906 121.536875 77.625 121.515625 C76.55830078 121.51046875 75.49160156 121.5053125 74.39257812 121.5 C66.49622253 121.41998626 66.49622253 121.41998626 64.1875 120.265625 C63.7734375 118.19921875 63.7734375 118.19921875 63.5625 115.703125 C63.52511719 115.28998047 63.52511719 115.28998047 63.3359375 113.19921875 C63.28695312 112.56113281 63.23796875 111.92304687 63.1875 111.265625 C62.73761719 111.72453125 62.28773438 112.1834375 61.82421875 112.65625 C53.08953091 120.988337 42.53494761 123.61606978 30.63671875 123.4140625 C20.21327952 122.78233891 9.75984834 119.83797334 2.1875 112.265625 C-4.89261573 103.11593698 -7.96417166 94.19298684 -7.95776367 82.67333984 C-7.96112228 81.80790054 -7.9644809 80.94246124 -7.96794128 80.05079651 C-7.97743393 77.19270389 -7.97939322 74.3346699 -7.98046875 71.4765625 C-7.98368131 69.49166845 -7.98704538 67.50677465 -7.99055481 65.5218811 C-7.996541 61.36419119 -7.99839511 57.20652205 -7.99780273 53.04882812 C-7.99770087 47.71086958 -8.01138068 42.37304332 -8.02857494 37.0351162 C-8.03966729 32.93801251 -8.04172284 28.84094117 -8.04119301 24.74382401 C-8.04237625 22.77496508 -8.04681713 20.80610539 -8.05452538 18.8372612 C-8.06427429 16.09111859 -8.0614681 13.34526796 -8.05541992 10.59912109 C-8.06103943 9.7803801 -8.06665894 8.9616391 -8.07244873 8.11808777 C-8.03352658 1.19728174 -6.79556991 0.01437998 0 0 Z " fill="#017582" transform="translate(352.8125,722.734375)"/>
<path d="M0 0 C1.21429688 0.00322266 2.42859375 0.00644531 3.6796875 0.00976562 C4.28683594 0.00170898 4.28683594 0.00170898 7.359375 -0.0390625 C8.51695312 -0.03970703 9.67453125 -0.04035156 10.8671875 -0.04101562 C11.40021484 -0.0425061 11.40021484 -0.0425061 14.09765625 -0.05004883 C14.94972656 0.07281494 15.80179687 0.19567871 16.6796875 0.32226562 C19.10172788 3.9553262 18.91271641 5.64045585 18.875 9.95898438 C18.86855469 11.25771484 18.86210937 12.55644531 18.85546875 13.89453125 C18.8387581 15.2662787 18.82182821 16.63802349 18.8046875 18.00976562 C18.79465424 19.39322281 18.78552899 20.7766869 18.77734375 22.16015625 C18.75373717 25.54770015 18.72080787 28.93489634 18.6796875 32.32226562 C19.74928711 32.31179199 20.81888672 32.30131836 21.92089844 32.29052734 C39.73227442 32.14476004 39.73227442 32.14476004 43.359375 34.33789062 C45.4975559 37.55148795 45.11100967 41.0331154 45.0546875 44.75976562 C45.06628906 45.52353516 45.07789063 46.28730469 45.08984375 47.07421875 C45.08597656 47.81478516 45.08210938 48.55535156 45.078125 49.31835938 C45.07474121 49.9905249 45.07135742 50.66269043 45.06787109 51.35522461 C44.53835124 54.03845821 43.55402624 55.33655904 41.6796875 57.32226562 C39.31958008 57.77636719 39.31958008 57.77636719 36.57421875 57.71289062 C36.08276367 57.70644531 36.08276367 57.70644531 33.59570312 57.67382812 C32.57154297 57.6403125 31.54738281 57.60679687 30.4921875 57.57226562 C29.45642578 57.55421875 28.42066406 57.53617188 27.35351562 57.51757812 C24.79464466 57.47041 22.23762908 57.4046062 19.6796875 57.32226562 C19.6099799 64.89394368 19.55677127 72.46558819 19.52425098 80.03751469 C19.50863772 83.5540156 19.48747985 87.07029593 19.45336914 90.58666992 C19.41434415 94.63527467 19.39994249 98.68365002 19.38671875 102.73242188 C19.37123489 103.98684586 19.35575104 105.24126984 19.33979797 106.53370667 C19.33857963 112.88204616 19.44177943 117.77882627 22.6796875 123.32226562 C26.63449442 126.78005911 30.82471114 126.78893576 35.8671875 126.88476562 C43.42387089 127.06644902 43.42387089 127.06644902 45.6796875 129.32226562 C46.13060425 132.78169895 46.00375172 136.27430997 45.9921875 139.75976562 C46.00830078 140.72720703 46.02441406 141.69464844 46.04101562 142.69140625 C46.04166016 143.62017578 46.04230469 144.54894531 46.04296875 145.50585938 C46.04594971 146.35720459 46.04893066 147.2085498 46.05200195 148.08569336 C45.59257511 150.84556833 44.92225885 151.68447535 42.6796875 153.32226562 C31.75294309 157.14330833 15.63409722 154.95542162 5.421875 150.29101562 C-3.29794299 145.38404581 -8.55161456 137.81919727 -11.3203125 128.32226562 C-12.07474157 124.38688927 -12.44839247 120.66259744 -12.453125 116.65820312 C-12.4540918 116.10531616 -12.4540918 116.10531616 -12.45898438 113.30737305 C-12.45447266 112.1160376 -12.44996094 110.92470215 -12.4453125 109.69726562 C-12.44337891 108.45501221 -12.44144531 107.21275879 -12.43945312 105.93286133 C-12.36775232 89.72350098 -11.84311776 73.52227634 -11.3203125 57.32226562 C-11.79662109 57.33966797 -11.79662109 57.33966797 -14.20703125 57.42773438 C-15.46128906 57.45480469 -16.71554687 57.481875 -18.0078125 57.50976562 C-18.62849609 57.52716797 -18.62849609 57.52716797 -21.76953125 57.61523438 C-25.56585497 57.30200635 -27.42486709 56.77749175 -30.3203125 54.32226562 C-30.91967773 52.26928711 -30.91967773 52.26928711 -30.87890625 49.94335938 C-30.87181641 49.10482422 -30.86472656 48.26628906 -30.85742188 47.40234375 C-30.82455078 46.53029297 -30.79167969 45.65824219 -30.7578125 44.75976562 C-30.75201172 43.88384766 -30.74621094 43.00792969 -30.74023438 42.10546875 C-30.61536622 35.61731934 -30.61536622 35.61731934 -28.3203125 33.32226562 C-24.7947871 32.0365809 -21.28586687 32.22261008 -17.5703125 32.25976562 C-16.98507812 32.26427734 -16.98507812 32.26427734 -14.0234375 32.28710938 C-13.13140625 32.29871094 -12.239375 32.3103125 -11.3203125 32.32226562 C-11.33078613 31.4239502 -11.34125977 30.52563477 -11.35205078 29.60009766 C-11.3861072 26.27162115 -11.41119868 22.9433294 -11.43017578 19.61474609 C-11.44024213 18.17331015 -11.4538963 16.73189467 -11.47119141 15.29052734 C-11.49541262 13.22032629 -11.50678891 11.15039486 -11.515625 9.08007812 C-11.52609863 7.83371582 -11.53657227 6.58735352 -11.54736328 5.30322266 C-11.02881911 -1.50476044 -5.41767804 0.03318177 0 0 Z " fill="#017582" transform="translate(280.3203125,690.677734375)"/>
<path d="M0 0 C1.11246094 -0.00257813 2.22492188 -0.00515625 3.37109375 -0.0078125 C4.53769531 -0.00007812 5.70429688 0.00765625 6.90625 0.015625 C8.07285156 0.00789062 9.23945313 0.00015625 10.44140625 -0.0078125 C11.55386719 -0.00523437 12.66632813 -0.00265625 13.8125 0 C14.83666016 0.00225586 15.86082031 0.00451172 16.91601562 0.00683594 C19.40625 0.265625 19.40625 0.265625 21.40625 2.265625 C21.63330078 5.24658203 21.63330078 5.24658203 21.6015625 9.0234375 C21.5987326 9.68648895 21.59590271 10.34954041 21.59298706 11.03268433 C21.58178435 13.15218083 21.55668051 15.27125604 21.53125 17.390625 C21.52122028 18.82681682 21.51209441 20.26301525 21.50390625 21.69921875 C21.481845 25.22149128 21.44731494 28.74351703 21.40625 32.265625 C21.91720215 32.26453735 21.91720215 32.26453735 24.50292969 32.2590332 C25.86132806 32.25727362 27.2197265 32.25556746 28.578125 32.25390625 C29.24956543 32.25233521 29.92100586 32.25076416 30.61279297 32.24914551 C40.6722893 32.23993351 40.6722893 32.23993351 45.40625 33.265625 C48.54622607 37.14399727 48.81291128 40.36868094 48.78125 45.265625 C48.78511719 45.86375 48.78511719 45.86375 48.8046875 48.890625 C48.36642866 52.60293519 47.7023123 54.34176922 45.40625 57.265625 C42.86254883 57.83325195 42.86254883 57.83325195 39.86328125 57.75390625 C38.79013672 57.73779297 37.71699219 57.72167969 36.61132812 57.70507812 C36.05155273 57.68413086 36.05155273 57.68413086 33.21875 57.578125 C32.08759766 57.55556641 30.95644531 57.53300781 29.79101562 57.50976562 C26.99470401 57.45077171 24.2013613 57.36425227 21.40625 57.265625 C21.4759903 57.99891022 21.54573059 58.73219543 21.61758423 59.48770142 C22.25583129 66.58096166 22.56355311 73.60709618 22.6171875 80.7265625 C22.64521605 82.8476645 22.67388012 84.96875817 22.703125 87.08984375 C22.74454619 90.3813488 22.78150438 93.67269107 22.80761719 96.96435547 C22.83521045 100.17706802 22.88102397 103.38910923 22.9296875 106.6015625 C22.93294037 107.58289154 22.93619324 108.56422058 22.93954468 109.57528687 C23.03447961 114.85776675 23.37399419 118.73620982 26.40625 123.265625 C30.89925418 126.32372466 34.80115219 126.66408544 40.15625 126.828125 C47.19652356 127.05589856 47.19652356 127.05589856 49.40625 129.265625 C49.85716675 132.72505833 49.73031422 136.21766934 49.71875 139.703125 C49.73486328 140.67056641 49.75097656 141.63800781 49.76757812 142.63476562 C49.76822266 143.56353516 49.76886719 144.49230469 49.76953125 145.44921875 C49.77251221 146.30056396 49.77549316 147.15190918 49.77856445 148.02905273 C49.32183788 150.77270662 48.62994647 151.63354536 46.40625 153.265625 C33.47076182 155.85272264 18.35098793 155.25880943 6.65625 148.79296875 C-1.64256037 143.15957491 -6.24773298 134.17209758 -8.14474487 124.43844604 C-8.57028874 121.43141013 -8.72062328 118.60475901 -8.72314453 115.57080078 C-8.72629669 114.47591339 -8.72944885 113.381026 -8.73269653 112.25296021 C-8.7306723 111.08409271 -8.72864807 109.91522522 -8.7265625 108.7109375 C-8.72704086 108.10317978 -8.72704086 108.10317978 -8.72946167 105.02755737 C-8.73014109 102.46059111 -8.72830339 99.89362311 -8.72412109 97.32666016 C-8.71877882 93.41174425 -8.72406942 89.49694355 -8.73046875 85.58203125 C-8.72980775 83.08333308 -8.72852612 80.58463498 -8.7265625 78.0859375 C-8.72858673 76.92111847 -8.73061096 75.75629944 -8.73269653 74.55618286 C-8.71592352 68.69661368 -8.48435027 63.059391 -7.59375 57.265625 C-8.10615234 57.28302734 -8.10615234 57.28302734 -10.69921875 57.37109375 C-12.05987936 57.39924535 -13.4205578 57.42654404 -14.78125 57.453125 C-15.11801758 57.46569336 -15.11801758 57.46569336 -16.82226562 57.52929688 C-19.95220298 57.57510084 -22.57231049 57.27249809 -25.5546875 56.31640625 C-27.89817891 53.95944649 -27.94618731 53.33971256 -28.15234375 50.140625 C-28.13773608 48.51518939 -28.09637108 46.88982128 -28.03125 45.265625 C-28.02544922 44.44578125 -28.01964844 43.6259375 -28.01367188 42.78125 C-27.88965708 36.70948562 -27.88965708 36.70948562 -25.59375 33.265625 C-21.69590875 32.05404024 -17.83602229 32.1621677 -13.78125 32.203125 C-12.61980469 32.21214844 -11.45835937 32.22117187 -10.26171875 32.23046875 C-9.38128906 32.24207031 -8.50085938 32.25367188 -7.59375 32.265625 C-7.60422363 31.36730957 -7.61469727 30.46899414 -7.62548828 29.54345703 C-7.6595447 26.21498053 -7.68463618 22.88668878 -7.70361328 19.55810547 C-7.71367963 18.11666953 -7.7273338 16.67525405 -7.74462891 15.23388672 C-7.76885012 13.16368566 -7.78022641 11.09375424 -7.7890625 9.0234375 C-7.79953613 7.7770752 -7.81000977 6.53071289 -7.82080078 5.24658203 C-7.40670904 -0.19004185 -4.7606205 0.01048595 0 0 Z " fill="#017582" transform="translate(490.59375,690.734375)"/>
<path d="M0 0 C0.75087891 -0.00773438 1.50175781 -0.01546875 2.27539062 -0.0234375 C7.55134909 -0.00487652 11.66332096 0.35082096 15.5625 4.25 C17.55822605 10.83589598 16.91784864 18.60879168 15.5625 25.25 C13.5625 27.25 13.5625 27.25 11.12890625 27.48046875 C-8.48763193 27.19986807 -8.48763193 27.19986807 -11.4375 24.25 C-12.37648246 21.43638628 -12.55624276 18.87398657 -12.53515625 15.921875 C-12.53354492 15.52226563 -12.53354492 15.52226563 -12.52539062 13.5 C-12.51701172 12.675 -12.50863281 11.85 -12.5 11 C-12.49548828 10.15953125 -12.49097656 9.3190625 -12.48632812 8.453125 C-12.47457961 6.38538599 -12.45664522 4.31768376 -12.4375 2.25 C-8.56462509 -0.33876519 -4.47940094 -0.04590334 0 0 Z " fill="#017582" transform="translate(417.4375,680.75)"/>
<path d="M0 0 C1.96777344 -0.38818359 1.96777344 -0.38818359 4.359375 -0.3984375 C5.22820312 -0.40230469 6.09703125 -0.40617188 6.9921875 -0.41015625 C7.90226562 -0.39855469 8.81234375 -0.38695312 9.75 -0.375 C10.19730469 -0.38080078 10.19730469 -0.38080078 12.4609375 -0.41015625 C17.7408072 -0.38679399 21.40034803 0.12140986 26 3 C25.89040282 6.29237055 25.75971069 9.58356887 25.625 12.875 C25.60953125 13.34357422 25.60953125 13.34357422 25.53125 15.71484375 C25.49257813 16.61074219 25.45390625 17.50664063 25.4140625 18.4296875 C25.3826416 19.25710449 25.3512207 20.08452148 25.31884766 20.93701172 C25 23 25 23 23 25 C20.56982422 25.22705078 20.56982422 25.22705078 17.5546875 25.1953125 C16.47832031 25.18886719 15.40195312 25.18242188 14.29296875 25.17578125 C13.16503906 25.15902344 12.03710938 25.14226563 10.875 25.125 C9.73933594 25.11597656 8.60367187 25.10695313 7.43359375 25.09765625 C4.62218701 25.07403098 1.81119702 25.04109013 -1 25 C-2.81948976 21.36102049 -2.18470453 17.06840712 -2.1875 13.0625 C-2.19974609 12.14275391 -2.21199219 11.22300781 -2.22460938 10.27539062 C-2.22654297 9.39173828 -2.22847656 8.50808594 -2.23046875 7.59765625 C-2.23457764 6.78820557 -2.23868652 5.97875488 -2.24291992 5.14477539 C-2 3 -2 3 0 0 Z " fill="#017582" transform="translate(358,682)"/>
</svg>
