<?xml version="1.0" encoding="UTF-8"?>
<!-- Generator: visioncortex VTracer 0.6.12 -->
<svg version="1.1" xmlns="http://www.w3.org/2000/svg" width="574" height="573" viewBox="0 0 574 573">
<path d="M0 0 C0.83453705 -0.00067474 1.6690741 -0.00134949 2.52890015 -0.00204468 C65.87643415 0.07876634 127.46825298 20.35749183 176.9375 60.25 C177.92234375 61.02988281 178.9071875 61.80976562 179.921875 62.61328125 C194.18194285 74.24935185 207.87516396 87.51429284 218.9375 102.25 C219.84769224 103.40984885 220.75925582 104.5686223 221.671875 105.7265625 C248.82917254 140.57426427 266.0497782 181.20255572 274.1875 224.5 C274.33880371 225.30155518 274.49010742 226.10311035 274.64599609 226.92895508 C277.34592378 242.30939058 278.32096327 257.71827225 278.25 273.3125 C278.24908859 273.73350479 278.24908859 273.73350479 278.24447632 275.86404419 C278.19158358 290.48225401 277.36888238 304.81247057 274.9375 319.25 C274.77121094 320.23887207 274.60492187 321.22774414 274.43359375 322.24658203 C266.43489794 367.86136677 246.82182138 410.15661338 217.9375 446.25 C217.23496094 447.14589844 216.53242188 448.04179687 215.80859375 448.96484375 C207.12387775 459.85672514 197.66948642 470.34473468 186.9375 479.25 C185.53950305 480.51845283 184.14381272 481.78945084 182.75 483.0625 C157.3897396 505.53307086 127.02448767 522.87436413 95.1875 534.25 C94.37788818 534.54108643 93.56827637 534.83217285 92.73413086 535.13208008 C87.78785312 536.83202489 83.19386873 538.25 77.9375 538.25 C75.28125 536.2578125 75.28125 536.2578125 72.9375 533.25 C72.50953125 532.71858398 72.0815625 532.18716797 71.640625 531.63964844 C70.20060551 529.82824461 68.81549577 527.98398775 67.4375 526.125 C66.92195557 525.43414307 66.40641113 524.74328613 65.87524414 524.03149414 C61.32783236 517.88451092 57.0148674 511.58700155 52.72900391 505.25610352 C49.35403357 500.28153261 45.8940545 495.39020398 42.3125 490.5625 C20.94866459 461.63507069 20.94866459 461.63507069 21.56640625 449.6171875 C23.13157095 439.63308428 31.54350389 431.49850751 39.375 425.75 C47.66397274 420.27953422 56.54655161 415.68586523 65.28710938 410.98681641 C97.51709768 393.65879284 123.82587753 370.20578978 138.9375 336.25 C139.48019531 335.05117188 140.02289063 333.85234375 140.58203125 332.6171875 C156.05236303 296.35002997 156.4746769 253.52920089 142.04589844 216.87060547 C136.83975392 204.56162855 130.43458696 192.59983525 121.9375 182.25 C121.73672852 181.99798828 121.73672852 181.99798828 120.72070312 180.72265625 C96.33677788 150.14191392 61.3167522 131.19246068 22.60498047 125.93310547 C-17.33649116 121.43798112 -58.35673053 130.22170052 -90.30541992 155.33422852 C-122.73664895 181.48397808 -142.46189228 217.09201833 -147.4609375 258.5546875 C-147.73966977 261.45500973 -147.93205553 264.33945778 -148.0625 267.25 C-148.10375 268.12914062 -148.145 269.00828125 -148.1875 269.9140625 C-149.11669191 311.14695349 -134.28749717 349.38737501 -106.0625 379.25 C-105.32773438 380.04921875 -104.59296875 380.8484375 -103.8359375 381.671875 C-94.55029042 391.42335722 -83.54425386 399.28369226 -72.0625 406.25 C-72.58199219 407.10980469 -73.10148438 407.96960938 -73.63671875 408.85546875 C-80.5231807 420.44588851 -85.13533221 432.04204779 -88.0625 445.25 C-104.18093371 439.15113319 -118.77372055 427.08781507 -131.0625 415.25 C-131.3291748 414.99621582 -131.3291748 414.99621582 -132.67871094 413.71191406 C-140.97903083 405.7819375 -148.43709961 397.62740644 -155.0625 388.25 C-155.47983398 387.66637695 -155.89716797 387.08275391 -156.32714844 386.48144531 C-162.91864496 377.19546876 -168.33071355 367.60078286 -173.0625 357.25 C-173.40023437 356.51797363 -173.73796875 355.78594727 -174.0859375 355.03173828 C-179.67655549 342.77598974 -183.93448613 330.3523799 -187.0625 317.25 C-187.16836426 316.81469971 -187.16836426 316.81469971 -187.70410156 314.61181641 C-193.53736202 289.48072518 -193.94059999 259.44510557 -188.0625 234.25 C-187.88557617 233.46367187 -187.70865234 232.67734375 -187.52636719 231.8671875 C-183.72264527 215.31212838 -177.88671319 200.03883279 -169.99121094 185.02197266 C-169.16913758 183.45346361 -168.36811767 181.87395963 -167.5703125 180.29296875 C-145.46034397 137.63447014 -103.99515988 105.24261851 -58.77246094 90.57299805 C-7.03995745 74.39579311 48.26440133 79.87830696 96.27490234 104.81054688 C111.09538848 112.82279575 124.46124927 123.0990553 136.875 134.4375 C137.38256836 134.90019287 137.89013672 135.36288574 138.41308594 135.83959961 C151.31117665 147.88557056 162.2854715 162.92609797 170.9375 178.25 C171.2979541 178.88341309 171.6584082 179.51682617 172.02978516 180.16943359 C196.7240912 223.90792112 203.23701971 276.56836559 189.91772461 325.06640625 C188.71635489 329.17299401 187.36294332 333.21626406 185.9375 337.25 C185.79320557 337.65887451 185.79320557 337.65887451 185.06298828 339.72802734 C173.92147493 370.60972336 154.55408877 400.37722397 128.9375 421.25 C127.87225988 422.15088093 126.80716945 423.05193888 125.7421875 423.953125 C108.43053054 438.40623587 88.55267653 448.59108378 68.38671875 458.484375 C63.29045337 461.09310881 63.29045337 461.09310881 61.9375 464.25 C62.61183002 474.4998163 69.83758206 482.19972615 76.19921875 489.82421875 C78.58617481 491.78205911 79.82322322 492.15549781 82.9375 492.25 C85.935231 491.41966091 88.72377152 490.19967128 91.5625 488.9375 C92.39644287 488.57430664 93.23038574 488.21111328 94.08959961 487.83691406 C121.29251095 475.77849676 144.92386324 459.40758836 166.31298828 438.81152344 C167.69724662 437.48093787 169.0952721 436.16469913 170.49609375 434.8515625 C177.04956303 428.56677378 182.48869929 421.48497097 187.9375 414.25 C188.35644531 413.7024707 188.77539062 413.15494141 189.20703125 412.59082031 C212.06681917 382.60095569 225.67862182 347.24766811 231.9375 310.25 C232.06882324 309.48187988 232.20014648 308.71375977 232.33544922 307.92236328 C241.64785946 249.91897775 226.48161726 186.74973065 192.33569336 139.16748047 C156.37921307 89.9626563 103.53168935 56.1851717 43.140625 46.25 C38.08367781 45.48060751 33.02225315 44.80624056 27.9375 44.25 C27.1012207 44.1557373 26.26494141 44.06147461 25.40332031 43.96435547 C-3.73051799 40.97173959 -32.80190314 43.91612879 -61.0625 51.25 C-61.43310547 51.34394043 -61.43310547 51.34394043 -63.30859375 51.81933594 C-118.61041086 66.05067511 -167.75202522 104.59425582 -196.90234375 153.4375 C-215.81270693 186.49212621 -229.07128319 222.75774709 -230.0625 261.25 C-230.08828125 262.12076172 -230.1140625 262.99152344 -230.140625 263.88867188 C-231.42991842 313.42977158 -218.96712789 365.84631143 -189.0625 406.25 C-188.29550781 407.28769531 -187.52851563 408.32539063 -186.73828125 409.39453125 C-184.23813822 412.72689598 -181.66592277 415.99791626 -179.0625 419.25 C-178.64661621 419.77174805 -178.23073242 420.29349609 -177.80224609 420.83105469 C-166.6449289 434.71821567 -154.11627696 447.4438871 -139.74951172 458.00732422 C-138.09148451 459.22864961 -136.45373502 460.47377916 -134.81640625 461.72265625 C-111.22766486 479.42911081 -84.32931266 491.34293213 -56.0625 499.25 C-56.35253906 498.7653125 -56.35253906 498.7653125 -57.8203125 496.3125 C-61.95134225 489.27451492 -65.71304522 482.2861847 -68.5625 474.625 C-68.80500488 473.9753125 -69.04750977 473.325625 -69.29736328 472.65625 C-74.46085018 458.17595509 -72.84387014 443.13895951 -66.49780273 429.37231445 C-58.75791896 413.39448245 -47.51540597 401.76564966 -33.61328125 391.0078125 C-21.49870982 381.63108885 -9.72416464 371.70491672 1.5859375 361.37109375 C3.17166064 359.94078202 4.78200642 358.53736446 6.4140625 357.16015625 C16.48760091 348.61241437 16.48760091 348.61241437 17.15625 342.12890625 C16.5999957 328.75562583 2.99606445 319.09704369 -5.90112305 310.54833984 C-25.9768385 291.19768906 -25.9768385 291.19768906 -27.3984375 278.171875 C-27.5434737 266.39493568 -24.71091512 258.91019027 -16.47265625 250.390625 C-10.0354278 244.67328109 -3.77942046 243.55198385 4.73046875 243.87890625 C14.51997102 245.01167448 20.8536626 249.62657926 26.9375 257.25 C31.05386929 263.14027428 31.44239399 269.3914797 31.5234375 276.40258789 C31.65640579 282.53046174 33.03976983 287.13993638 37.171875 291.734375 C38.00203125 292.48203125 38.8321875 293.2296875 39.6875 294 C51.01550117 304.91577406 58.60683867 320.17565422 59.23828125 336.046875 C59.25756054 337.69780872 59.26109355 339.34899098 59.25 341 C59.24508545 341.87180908 59.2401709 342.74361816 59.23510742 343.6418457 C58.83747369 365.71969395 47.64136609 379.15470813 32.43554688 393.82714844 C29.9854406 396.15427024 27.46818542 398.3891644 24.89453125 400.578125 C21.74607951 403.2678203 18.69445342 406.06465029 15.625 408.84375 C13.47448085 410.76921482 11.31115815 412.67600846 9.13671875 414.57421875 C-15.88143271 436.45702807 -15.88143271 436.45702807 -16.75 449.125 C-16.16718758 460.5335532 -9.28654251 468.57488382 -2.046875 476.77734375 C1.11492065 480.38978852 3.9680621 484.19811054 6.8125 488.0625 C10.88581866 493.57743193 15.08166121 498.95539167 19.4375 504.25 C24.86120041 510.85188556 30.04825214 517.59814896 35.12109375 524.47265625 C36.94217047 526.93735155 38.80375074 529.35683485 40.72265625 531.74609375 C41.15094727 532.28782227 41.57923828 532.82955078 42.02050781 533.38769531 C43.1667707 534.83258745 44.32700262 536.26636711 45.48828125 537.69921875 C46.9375 540.25 46.9375 540.25 46.98046875 542.95703125 C45.9375 545.25 45.9375 545.25 43.87182617 546.32421875 C40.26160486 547.46324523 36.69404445 547.96165857 32.9453125 548.35546875 C32.55316055 548.39741112 32.55316055 548.39741112 30.56863403 548.60966492 C20.99432161 549.54854115 11.42482105 549.60127435 1.8125 549.5625 C1.3412822 549.56158859 1.3412822 549.56158859 -1.04336548 549.55697632 C-15.58531382 549.50972972 -29.72825855 548.85790375 -44.0625 546.25 C-44.97708984 546.09966309 -45.89167969 545.94932617 -46.83398438 545.79443359 C-111.86484469 535.01936159 -175.43579523 496.85873132 -214.83300781 443.87207031 C-215.99372154 442.34073949 -217.21028192 440.85220618 -218.4296875 439.3671875 C-249.46972428 401.20320786 -266.04172032 352.4979305 -272.0625 304.25 C-272.1670752 303.41436523 -272.27165039 302.57873047 -272.37939453 301.71777344 C-273.36661009 292.55203325 -273.3061939 283.3331883 -273.3125 274.125 C-273.31317474 273.23772217 -273.31384949 272.35044434 -273.31454468 271.4362793 C-273.29698869 256.85726512 -272.59357092 242.63636019 -270.0625 228.25 C-269.89089355 227.26225586 -269.71928711 226.27451172 -269.54248047 225.25683594 C-261.37851984 179.74585614 -242.06629346 137.24991616 -213.0625 101.25 C-212.68996094 100.77498047 -212.68996094 100.77498047 -210.8046875 98.37109375 C-197.58660386 82.07162405 -182.09247679 66.52311508 -165.0625 54.25 C-163.88934828 53.35231849 -162.71885753 52.45115086 -161.55078125 51.546875 C-147.22086266 40.56566042 -131.3715614 31.92150972 -115.0625 24.25 C-113.98613281 23.74082031 -112.90976563 23.23164062 -111.80078125 22.70703125 C-86.07116102 11.13025399 -58.06196985 4.26724391 -30.0625 1.25 C-29.19407471 1.1557373 -28.32564941 1.06147461 -27.4309082 0.96435547 C-18.29608572 0.08674685 -9.16914495 0.00670899 0 0 Z " fill="#017582" transform="translate(285.0625,11.75)"/>
<path d="M0 0 C3.41893633 2.91466843 6.7292354 5.92063987 10 9 C10.61488281 9.55042969 11.22976563 10.10085937 11.86328125 10.66796875 C30.67134492 28.17892458 41.1077052 56.72635824 42.28515625 81.92578125 C43.12514085 112.86770523 32.26176616 141.72015711 11.48535156 164.67333984 C8.75338232 167.55247068 5.91996462 170.31259894 3 173 C1.46980666 169.93961331 2.50270426 167.35424306 3 164 C4.07186786 149.35807688 3.01077507 134.23060195 -3.9375 121.0625 C-5.97806893 116.99380464 -6.16145283 114.83149066 -4.9375 110.4375 C-4.30757072 108.61941143 -3.6622333 106.80657245 -3 105 C1.87006004 87.75425798 -0.84213235 69.38728547 -9.3125 53.73828125 C-20.23810362 36.00946612 -35.92673962 25.52008128 -55.84765625 20.24609375 C-72.45660801 16.74818491 -90.66880252 19.05019888 -105.22265625 27.9765625 C-121.46762543 38.61771954 -132.14216728 52.98292487 -136.74609375 72.09765625 C-139.83144832 88.58834446 -137.49620197 105.00759606 -130 120 C-129.58105469 120.83789062 -129.16210938 121.67578125 -128.73046875 122.5390625 C-121.81516947 135.09421681 -111.83057423 143.3810517 -100 151 C-98.11833188 152.28193326 -96.2426884 153.57278349 -94.375 154.875 C-93.59898437 155.40867187 -92.82296875 155.94234375 -92.0234375 156.4921875 C-90.13155397 157.90196943 -88.494959 159.17387919 -87 161 C-86.86986036 164.38363076 -87.15406318 166.79894295 -89.14453125 169.625 C-94.04747963 174.78861146 -99.96729844 179.01701209 -105.59765625 183.3515625 C-108.80074141 185.82280178 -111.90731197 188.3921626 -115 191 C-128.20835756 186.2754721 -139.30446891 176.86066179 -149 167 C-149.41056641 166.58878906 -149.41056641 166.58878906 -151.48828125 164.5078125 C-165.73284357 149.50058795 -174.0352902 130.84858156 -179 111 C-179.2475 110.04351562 -179.495 109.08703125 -179.75 108.1015625 C-185.62861017 80.25981154 -179.00606597 49.85851762 -164 26 C-147.04865583 0.34112645 -122.00257089 -15.97447496 -92.12890625 -22.57861328 C-60.51186762 -28.83675648 -24.93077256 -20.4540394 0 0 Z " fill="#017582" transform="translate(357,199)"/>
<path d="M0 0 C6.09704254 4.80839317 11.22006283 10.29430926 13 18 C13.30418414 21.39387476 13.54656602 24.74654449 13.5859375 28.15258789 C13.71890579 34.28046174 15.10226983 38.88993638 19.234375 43.484375 C20.06453125 44.23203125 20.8946875 44.9796875 21.75 45.75 C33.07800117 56.66577406 40.66933867 71.92565422 41.30078125 87.796875 C41.32006054 89.44780872 41.32359355 91.09899098 41.3125 92.75 C41.31004272 93.18590454 41.31004272 93.18590454 41.29760742 95.3918457 C40.89997369 117.46969395 29.70386609 130.90470813 14.49804688 145.57714844 C12.0479406 147.90427024 9.53068542 150.1391644 6.95703125 152.328125 C3.80857951 155.0178203 0.75695342 157.81465029 -2.3125 160.59375 C-4.46301915 162.51921482 -6.62634185 164.42600846 -8.80078125 166.32421875 C-33.81893271 188.20702807 -33.81893271 188.20702807 -34.6875 200.875 C-34.10468758 212.2835532 -27.22404251 220.32488382 -19.984375 228.52734375 C-16.82257935 232.13978852 -13.9694379 235.94811054 -11.125 239.8125 C-7.05168134 245.32743193 -2.85583879 250.70539167 1.5 256 C6.92370041 262.60188556 12.11075214 269.34814896 17.18359375 276.22265625 C19.00467047 278.68735155 20.86625074 281.10683485 22.78515625 283.49609375 C23.21344727 284.03782227 23.64173828 284.57955078 24.08300781 285.13769531 C25.2292707 286.58258745 26.38950262 288.01636711 27.55078125 289.44921875 C29 292 29 292 29.04296875 294.70703125 C28 297 28 297 25.9296875 298.07397461 C22.34444543 299.20720987 18.80522577 299.71448023 15.08203125 300.109375 C14.30164993 300.19346619 13.52126862 300.27755737 12.71723938 300.36419678 C3.67047872 301.24990839 -5.37196928 301.30146199 -14.45483398 301.26074219 C-17.35485926 301.24984077 -20.25428807 301.26080447 -23.15429688 301.2734375 C-25.01562635 301.27211862 -26.87695547 301.26956188 -28.73828125 301.265625 C-29.59658035 301.26967346 -30.45487946 301.27372192 -31.33918762 301.27789307 C-40.80735528 301.20350478 -40.80735528 301.20350478 -44.47875977 297.51391602 C-44.67884644 297.2235144 -44.67884644 297.2235144 -45.69140625 295.75390625 C-46.15522705 295.09084473 -46.61904785 294.4277832 -47.09692383 293.74462891 C-47.58056396 293.02452637 -48.0642041 292.30442383 -48.5625 291.5625 C-49.07772217 290.81403809 -49.59294434 290.06557617 -50.1237793 289.29443359 C-55.53801868 281.35814515 -60.64197423 273.22317402 -65.71044922 265.06347656 C-67.4022702 262.35630675 -69.13872982 259.67881684 -70.875 257 C-83.01660303 237.84911405 -93.84957475 216.3651699 -89 193.125 C-82.89080428 171.78543728 -68.71297269 156.03837677 -51.55078125 142.7578125 C-39.43620982 133.38108885 -27.66166464 123.45491672 -16.3515625 113.12109375 C-14.76583936 111.69078202 -13.15549358 110.28736446 -11.5234375 108.91015625 C-1.44989909 100.36241437 -1.44989909 100.36241437 -0.78125 93.87890625 C-1.3375043 80.50562583 -14.94143555 70.84704369 -23.83862305 62.29833984 C-43.9143385 42.94768906 -43.9143385 42.94768906 -45.3359375 29.921875 C-45.4809737 18.14493568 -42.64841512 10.66019027 -34.41015625 2.140625 C-24.89753554 -6.30818562 -10.74554452 -6.64010392 0 0 Z " fill="#F1B422" transform="translate(303,260)"/>
</svg>
